<?xml version="1.0" encoding="UTF-8"?>
<svg width="370px" height="215px" viewBox="0 0 370 215" version="1.1" xmlns="http://www.w3.org/2000/svg" xmlns:xlink="http://www.w3.org/1999/xlink">
    <title>Sol_LogoCenter_Slate</title>
    <defs>
        <linearGradient x1="72.2222222%" y1="0%" x2="33.1930383%" y2="86.7771225%" id="linearGradient-1">
            <stop stop-color="#8FCF4A" offset="0%"></stop>
            <stop stop-color="#00AAFF" offset="100%"></stop>
        </linearGradient>
    </defs>
    <g id="Sol_LogoCenter_Slate" stroke="none" stroke-width="1" fill="none" fill-rule="evenodd">
        <g id="Logo" transform="translate(134.000000, 0.000000)">
            <path d="M72,72 C72,85.254834 61.254834,96 48,96 C34.745166,96 24,85.254834 24,72 L24,72 L24,24 L72,24 Z" id="Combined-Shape" fill="url(#linearGradient-1)"></path>
            <path d="M96,0 L96,30 L84,36 L84,12 L12,12 L12,48 L96,48 L96,72 C96,98.509668 74.509668,120 48,120 C23.4620316,120 3.22452304,101.587543 0.349869078,77.8250228 L12,72 L12,76 L12.0306839,76.0000121 C12.8170774,94.4191644 28.6202241,109.12 48,109.12 C67.3797759,109.12 83.1829226,94.4191644 83.9693161,76.0000121 L83.9693166,76 L84,76 L84,60 L0,60 L0,0 L96,0 Z" id="Combined-Shape" fill="#404353"></path>
        </g>
        <path d="M7.1667412,213.78125 C4.82952387,213.635416 2.79224552,213.416668 1.05484503,213.125 L1.05484503,208.875 C5.43971294,209.333336 9.22470724,209.5625 12.4099415,209.5625 C14.395542,209.5625 15.9571107,209.458334 17.0946944,209.25 C18.232278,209.041666 19.1733559,208.666669 19.9179561,208.125 C20.6625563,207.624998 21.138266,206.864588 21.3450993,205.84375 C21.5519327,204.822912 21.6553479,203.437509 21.6553479,201.6875 C21.6553479,199.479156 21.5519327,197.937504 21.3450993,197.0625 C21.138266,196.187496 20.6728978,195.562502 19.9489809,195.1875 C19.2250641,194.812498 17.9323747,194.5 16.0708742,194.25 L7.32186547,193.125 C5.21216487,192.833332 3.62991316,192.229171 2.57506286,191.3125 C1.52021256,190.395829 0.827331087,189.208341 0.496397659,187.75 C0.165464232,186.291659 0,184.375012 0,182 C0,178.791651 0.496392695,176.322925 1.48919298,174.59375 C2.48199326,172.864575 3.9401468,171.66667 5.86369735,171 C7.7872479,170.33333 10.3209189,170 13.4647865,170 C15.6158538,170 17.7151812,170.093749 19.7628318,170.28125 C21.8104824,170.468751 23.4961492,170.708332 24.819883,171 L24.819883,175.125 C21.7587488,174.666664 18.346049,174.4375 14.5816812,174.4375 C12.4719806,174.4375 10.7966553,174.562499 9.55565494,174.8125 C8.31465459,175.062501 7.36323525,175.458331 6.7013684,176 C5.99813487,176.541669 5.53276671,177.260412 5.30524998,178.15625 C5.07773325,179.052088 4.96397659,180.291659 4.96397659,181.875 C4.96397659,183.708343 5.06739174,185.041663 5.27422513,185.875 C5.48105852,186.708337 5.8947191,187.302082 6.51521928,187.65625 C7.13571945,188.010418 8.14918787,188.270832 9.55565494,188.4375 L18.1185146,189.5625 C20.3523152,189.854168 22.0586651,190.30208 23.2376154,190.90625 C24.4165658,191.51042 25.2955945,192.604159 25.874728,194.1875 C26.4124948,195.52084 26.6813742,197.85415 26.6813742,201.1875 C26.6813742,204.729184 26.2056645,207.427074 25.2542309,209.28125 C24.3027973,211.135426 22.9273759,212.385413 21.1279254,213.03125 C19.3284749,213.677087 16.918902,214 13.8991345,214 C11.7480672,214 9.50395854,213.927084 7.1667412,213.78125 Z M48.9752336,212.34375 C46.9068996,211.239578 45.5935273,209.270847 45.0350771,206.4375 C44.476627,203.604152 44.1974061,198.791701 44.1974061,192 C44.1974061,185.208299 44.476627,180.395848 45.0350771,177.5625 C45.5935273,174.729152 46.9068996,172.760422 48.9752336,171.65625 C51.0435675,170.552078 54.5183164,170 59.3995844,170 C64.2808525,170 67.7452598,170.552078 69.7929104,171.65625 C71.840561,172.760422 73.1435918,174.729152 73.702042,177.5625 C74.2604921,180.395848 74.539713,185.208299 74.539713,192 C74.539713,198.791701 74.2604921,203.604152 73.702042,206.4375 C73.1435918,209.270847 71.840561,211.239578 69.7929104,212.34375 C67.7452598,213.447922 64.2808525,214 59.3995844,214 C54.5183164,214 51.0435675,213.447922 48.9752336,212.34375 Z M66.4732511,208.6875 C67.7142514,208.104164 68.5415726,206.687511 68.9552393,204.4375 C69.3689061,202.187489 69.5757364,198.041697 69.5757364,192 C69.5757364,185.958303 69.3689061,181.812511 68.9552393,179.5625 C68.5415726,177.312489 67.7142514,175.895836 66.4732511,175.3125 C65.2322507,174.729164 62.8743854,174.4375 59.3995844,174.4375 C55.9247834,174.4375 53.5565766,174.729164 52.2948929,175.3125 C51.0332092,175.895836 50.1955465,177.312489 49.7818798,179.5625 C49.368213,181.812511 49.1613827,185.958303 49.1613827,192 C49.1613827,198.041697 49.368213,202.187489 49.7818798,204.4375 C50.1955465,206.687511 51.0332092,208.104164 52.2948929,208.6875 C53.5565766,209.270836 55.9247834,209.5625 59.3995844,209.5625 C62.8743854,209.5625 65.2322507,209.270836 66.4732511,208.6875 Z M93.9792859,213.5 L93.9792859,170.5 L98.9432625,170.5 L98.9432625,208.9375 L115.820783,208.9375 L115.820783,213.5 L93.9792859,213.5 Z M132.654268,213.5 L132.654268,170.5 L137.618245,170.5 L137.618245,213.5 L132.654268,213.5 Z M158.360861,170.5 L170.274405,170.5 C175.362507,170.5 178.961354,171.031245 181.071054,172.09375 C183.180755,173.156255 184.525152,175.072903 185.104285,177.84375 C185.683419,180.614597 185.972981,185.3333 185.972981,192 C185.972981,198.6667 185.683419,203.385403 185.104285,206.15625 C184.525152,208.927097 183.180755,210.843745 181.071054,211.90625 C178.961354,212.968755 175.362507,213.5 170.274405,213.5 L158.360861,213.5 L158.360861,170.5 Z M169.715958,209.0625 C173.604426,209.0625 176.241512,208.781253 177.627295,208.21875 C179.013079,207.656247 179.923132,206.291677 180.357483,204.125 C180.791833,201.958323 181.009004,197.916696 181.009004,192 C181.009004,186.124971 180.791833,182.093761 180.357483,179.90625 C179.923132,177.718739 179.002738,176.343753 177.596271,175.78125 C176.189804,175.218747 173.563059,174.9375 169.715958,174.9375 L163.324838,174.9375 L163.324838,209.0625 L169.715958,209.0625 Z M205.474604,213.5 L205.474604,170.5 L210.43858,170.5 L210.43858,213.5 L205.474604,213.5 Z M231.181197,213.5 L231.181197,170.5 L254.015489,170.5 L254.015489,174.9375 L236.145174,174.9375 L236.145174,190.5 L252.091948,190.5 L252.091948,194.9375 L236.145174,194.9375 L236.145174,213.5 L231.181197,213.5 Z M271.469471,213.5 L271.469471,170.5 L276.433448,170.5 L276.433448,213.5 L271.469471,213.5 Z M297.176065,213.5 L297.176065,170.5 L321.127252,170.5 L321.127252,174.9375 L302.140041,174.9375 L302.140041,189.5625 L318.645264,189.5625 L318.645264,194 L302.140041,194 L302.140041,209.0625 L321.127252,209.0625 L321.127252,213.5 L297.176065,213.5 Z M339.38788,170.5 L351.301424,170.5 C356.389525,170.5 359.988373,171.031245 362.098073,172.09375 C364.207774,173.156255 365.552171,175.072903 366.131304,177.84375 C366.710438,180.614597 367,185.3333 367,192 C367,198.6667 366.710438,203.385403 366.131304,206.15625 C365.552171,208.927097 364.207774,210.843745 362.098073,211.90625 C359.988373,212.968755 356.389525,213.5 351.301424,213.5 L339.38788,213.5 L339.38788,170.5 Z M350.742977,209.0625 C354.631444,209.0625 357.268531,208.781253 358.654314,208.21875 C360.040098,207.656247 360.950151,206.291677 361.384501,204.125 C361.818852,201.958323 362.036023,197.916696 362.036023,192 C362.036023,186.124971 361.818852,182.093761 361.384501,179.90625 C360.950151,177.718739 360.029757,176.343753 358.62329,175.78125 C357.216822,175.218747 354.590078,174.9375 350.742977,174.9375 L344.351857,174.9375 L344.351857,209.0625 L350.742977,209.0625 Z" id="SOLIDIFIED" fill="#404353"></path>
    </g>
</svg>