<?xml version="1.0" encoding="UTF-8"?>
<svg width="370px" height="215px" viewBox="0 0 370 215" version="1.1" xmlns="http://www.w3.org/2000/svg" xmlns:xlink="http://www.w3.org/1999/xlink">
    <title>Sol_LogoCenter_White</title>
    <defs>
        <linearGradient x1="72.2222222%" y1="0%" x2="33.1930383%" y2="86.7771225%" id="linearGradient-1">
            <stop stop-color="#8FCF4A" offset="0%"></stop>
            <stop stop-color="#00AAFF" offset="100%"></stop>
        </linearGradient>
    </defs>
    <g id="Sol_LogoCenter_White" stroke="none" stroke-width="1" fill="none" fill-rule="evenodd">
        <g id="Logo" transform="translate(137.000000, 0.000000)">
            <path d="M72,72 C72,85.254834 61.254834,96 48,96 C34.745166,96 24,85.254834 24,72 L24,72 L24,24 L72,24 Z" id="Combined-Shape" fill="url(#linearGradient-1)"></path>
            <path d="M96,0 L96,30 L84,36 L84,12 L12,12 L12,48 L96,48 L96,72 C96,98.509668 74.509668,120 48,120 C23.4620316,120 3.22452304,101.587543 0.349869078,77.8250228 L12,72 L12,76 L12.0306839,76.0000121 C12.8170774,94.4191644 28.6202241,109.12 48,109.12 C67.3797759,109.12 83.1829226,94.4191644 83.9693161,76.0000121 L83.9693166,76 L84,76 L84,60 L0,60 L0,0 L96,0 Z" id="Combined-Shape" fill="#FFFFFF"></path>
        </g>
        <path d="M9.1667412,213.78125 C6.82952387,213.635416 4.79224552,213.416668 3.05484503,213.125 L3.05484503,208.875 C7.43971294,209.333336 11.2247072,209.5625 14.4099415,209.5625 C16.395542,209.5625 17.9571107,209.458334 19.0946944,209.25 C20.232278,209.041666 21.1733559,208.666669 21.9179561,208.125 C22.6625563,207.624998 23.138266,206.864588 23.3450993,205.84375 C23.5519327,204.822912 23.6553479,203.437509 23.6553479,201.6875 C23.6553479,199.479156 23.5519327,197.937504 23.3450993,197.0625 C23.138266,196.187496 22.6728978,195.562502 21.9489809,195.1875 C21.2250641,194.812498 19.9323747,194.5 18.0708742,194.25 L9.32186547,193.125 C7.21216487,192.833332 5.62991316,192.229171 4.57506286,191.3125 C3.52021256,190.395829 2.82733109,189.208341 2.49639766,187.75 C2.16546423,186.291659 2,184.375012 2,182 C2,178.791651 2.4963927,176.322925 3.48919298,174.59375 C4.48199326,172.864575 5.9401468,171.66667 7.86369735,171 C9.7872479,170.33333 12.3209189,170 15.4647865,170 C17.6158538,170 19.7151812,170.093749 21.7628318,170.28125 C23.8104824,170.468751 25.4961492,170.708332 26.819883,171 L26.819883,175.125 C23.7587488,174.666664 20.346049,174.4375 16.5816812,174.4375 C14.4719806,174.4375 12.7966553,174.562499 11.5556549,174.8125 C10.3146546,175.062501 9.36323525,175.458331 8.7013684,176 C7.99813487,176.541669 7.53276671,177.260412 7.30524998,178.15625 C7.07773325,179.052088 6.96397659,180.291659 6.96397659,181.875 C6.96397659,183.708343 7.06739174,185.041663 7.27422513,185.875 C7.48105852,186.708337 7.8947191,187.302082 8.51521928,187.65625 C9.13571945,188.010418 10.1491879,188.270832 11.5556549,188.4375 L20.1185146,189.5625 C22.3523152,189.854168 24.0586651,190.30208 25.2376154,190.90625 C26.4165658,191.51042 27.2955945,192.604159 27.874728,194.1875 C28.4124948,195.52084 28.6813742,197.85415 28.6813742,201.1875 C28.6813742,204.729184 28.2056645,207.427074 27.2542309,209.28125 C26.3027973,211.135426 24.9273759,212.385413 23.1279254,213.03125 C21.3284749,213.677087 18.918902,214 15.8991345,214 C13.7480672,214 11.5039585,213.927084 9.1667412,213.78125 Z M50.9752336,212.34375 C48.9068996,211.239578 47.5935273,209.270848 47.0350771,206.4375 C46.476627,203.604152 46.1974061,198.791701 46.1974061,192 C46.1974061,185.208299 46.476627,180.395848 47.0350771,177.5625 C47.5935273,174.729152 48.9068996,172.760422 50.9752336,171.65625 C53.0435675,170.552078 56.5183164,170 61.3995844,170 C66.2808525,170 69.7452598,170.552078 71.7929104,171.65625 C73.840561,172.760422 75.1435918,174.729152 75.702042,177.5625 C76.2604921,180.395848 76.539713,185.208299 76.539713,192 C76.539713,198.791701 76.2604921,203.604152 75.702042,206.4375 C75.1435918,209.270848 73.840561,211.239578 71.7929104,212.34375 C69.7452598,213.447922 66.2808525,214 61.3995844,214 C56.5183164,214 53.0435675,213.447922 50.9752336,212.34375 Z M68.4732511,208.6875 C69.7142514,208.104164 70.5415726,206.687511 70.9552393,204.4375 C71.3689061,202.187489 71.5757364,198.041697 71.5757364,192 C71.5757364,185.958303 71.3689061,181.812511 70.9552393,179.5625 C70.5415726,177.312489 69.7142514,175.895836 68.4732511,175.3125 C67.2322507,174.729164 64.8743854,174.4375 61.3995844,174.4375 C57.9247834,174.4375 55.5565766,174.729164 54.2948929,175.3125 C53.0332092,175.895836 52.1955465,177.312489 51.7818798,179.5625 C51.368213,181.812511 51.1613827,185.958303 51.1613827,192 C51.1613827,198.041697 51.368213,202.187489 51.7818798,204.4375 C52.1955465,206.687511 53.0332092,208.104164 54.2948929,208.6875 C55.5565766,209.270836 57.9247834,209.5625 61.3995844,209.5625 C64.8743854,209.5625 67.2322507,209.270836 68.4732511,208.6875 Z M95.9792859,213.5 L95.9792859,170.5 L100.943262,170.5 L100.943262,208.9375 L117.820783,208.9375 L117.820783,213.5 L95.9792859,213.5 Z M134.654268,213.5 L134.654268,170.5 L139.618245,170.5 L139.618245,213.5 L134.654268,213.5 Z M160.360861,170.5 L172.274405,170.5 C177.362507,170.5 180.961354,171.031245 183.071054,172.09375 C185.180755,173.156255 186.525152,175.072903 187.104285,177.84375 C187.683419,180.614597 187.972981,185.3333 187.972981,192 C187.972981,198.6667 187.683419,203.385403 187.104285,206.15625 C186.525152,208.927097 185.180755,210.843745 183.071054,211.90625 C180.961354,212.968755 177.362507,213.5 172.274405,213.5 L160.360861,213.5 L160.360861,170.5 Z M171.715958,209.0625 C175.604426,209.0625 178.241512,208.781253 179.627295,208.21875 C181.013079,207.656247 181.923132,206.291678 182.357483,204.125 C182.791833,201.958323 183.009004,197.916696 183.009004,192 C183.009004,186.124971 182.791833,182.093761 182.357483,179.90625 C181.923132,177.718739 181.002738,176.343753 179.596271,175.78125 C178.189804,175.218747 175.563059,174.9375 171.715958,174.9375 L165.324838,174.9375 L165.324838,209.0625 L171.715958,209.0625 Z M207.474604,213.5 L207.474604,170.5 L212.43858,170.5 L212.43858,213.5 L207.474604,213.5 Z M233.181197,213.5 L233.181197,170.5 L256.015489,170.5 L256.015489,174.9375 L238.145174,174.9375 L238.145174,190.5 L254.091948,190.5 L254.091948,194.9375 L238.145174,194.9375 L238.145174,213.5 L233.181197,213.5 Z M273.469471,213.5 L273.469471,170.5 L278.433448,170.5 L278.433448,213.5 L273.469471,213.5 Z M299.176065,213.5 L299.176065,170.5 L323.127252,170.5 L323.127252,174.9375 L304.140041,174.9375 L304.140041,189.5625 L320.645264,189.5625 L320.645264,194 L304.140041,194 L304.140041,209.0625 L323.127252,209.0625 L323.127252,213.5 L299.176065,213.5 Z M341.38788,170.5 L353.301424,170.5 C358.389525,170.5 361.988373,171.031245 364.098073,172.09375 C366.207774,173.156255 367.552171,175.072903 368.131304,177.84375 C368.710438,180.614597 369,185.3333 369,192 C369,198.6667 368.710438,203.385403 368.131304,206.15625 C367.552171,208.927097 366.207774,210.843745 364.098073,211.90625 C361.988373,212.968755 358.389525,213.5 353.301424,213.5 L341.38788,213.5 L341.38788,170.5 Z M352.742977,209.0625 C356.631444,209.0625 359.268531,208.781253 360.654314,208.21875 C362.040098,207.656247 362.950151,206.291678 363.384501,204.125 C363.818852,201.958323 364.036023,197.916696 364.036023,192 C364.036023,186.124971 363.818852,182.093761 363.384501,179.90625 C362.950151,177.718739 362.029757,176.343753 360.62329,175.78125 C359.216822,175.218747 356.590078,174.9375 352.742977,174.9375 L346.351857,174.9375 L346.351857,209.0625 L352.742977,209.0625 Z" id="SOLIDIFIED" fill="#FFFFFF"></path>
    </g>
</svg>